<svg width="173" height="49" fill="none" xmlns="http://www.w3.org/2000/svg"><path fill-rule="evenodd" clip-rule="evenodd" d="M3.894 14.528v19.888l9.53 5.609v4.49L.01 36.647H0V12.063l17.26-9.788-.06-.034L21.051 0l4.73 2.827v7.782l4.725 2.774h.052v.035l4.757 2.793v4.498l-4.756-2.793v17.337l-3.888 2.465V15.63l-4.774-2.8h-.01V5.024l-.8-.484-17.193 9.989zm37.485-2.601h.01V36.64L21.232 48.344v.01l-5.679-3.309V22.706l-2.827 6.532-2.723-6.3v12.073L6.11 32.822V15.743c1.491-.827 3.138-1.584 4.31-2.17l2.55 7.35 2.586-10.314 3.892-2.43v34.639l1.783 1.035 16.26-9.437V14.15l-9.53-5.61V4.05l13.418 7.877z" fill="#fff"/><path d="M53.146 21.023V1.35h6.238l3.696 13.42 3.645-13.42h6.266v19.674h-3.86l-.01-15.486-4.058 15.486h-4.006L57.015 5.537l-.018 15.486h-3.851zm42.57 0h-4.5l-1.775-4.48h-8.265l-1.706 4.48h-4.41l7.996-19.674h4.402l8.258 19.674zm-7.627-7.807l-2.862-7.273-2.783 7.273h5.645zm8.746 1.43l4.058-.388c.242 1.302.732 2.248 1.473 2.852.75.611 1.749.915 3.007.915 1.336 0 2.344-.267 3.017-.81.672-.543 1.017-1.172 1.017-1.895 0-.465-.146-.861-.431-1.19-.276-.328-.776-.61-1.491-.843-.484-.164-1.585-.45-3.309-.862-2.223-.534-3.773-1.181-4.671-1.956-1.268-1.086-1.895-2.403-1.895-3.972 0-.999.3-1.938.887-2.818.595-.871 1.448-1.534 2.567-1.99 1.12-.466 2.456-.689 4.043-.689 2.576 0 4.514.543 5.816 1.637 1.302 1.094 1.981 2.551 2.052 4.378l-4.17.136c-.18-1.016-.561-1.748-1.138-2.188-.577-.45-1.457-.673-2.611-.673-1.197 0-2.136.242-2.818.716-.431.31-.654.716-.654 1.231 0 .465.207.862.62 1.19.518.431 1.792.871 3.81 1.327 2.015.45 3.507.93 4.473 1.414.974.49 1.724 1.153 2.276 2 .542.843.818 1.894.818 3.137 0 1.119-.328 2.18-.982 3.162-.655.983-1.585 1.714-2.784 2.198-1.197.474-2.688.716-4.48.716-2.602 0-4.601-.568-6-1.724-1.397-1.15-2.224-2.814-2.5-5.011zm24.913 6.377V4.675h-6.101V1.351h16.338v3.327h-6.067v16.347h-4.17v-.002zm12.934 0V1.35h15.244v3.327h-11.074v4.368h10.299v3.327h-10.299v5.325h11.478v3.327h-15.648v-.002zm19.191 0V1.35h8.755c2.198 0 3.801.18 4.799.534a4.702 4.702 0 012.397 1.878c.604.905.905 1.938.905 3.103 0 1.482-.456 2.698-1.361 3.655-.906.965-2.258 1.569-4.059 1.817.896.5 1.637 1.051 2.214 1.656.586.595 1.37 1.662 2.362 3.187l2.508 3.844h-4.973l-2.982-4.302c-1.069-1.526-1.801-2.483-2.198-2.878-.396-.394-.809-.672-1.249-.818-.449-.146-1.147-.214-2.102-.214h-.844v8.212h-4.172v-.002zm4.17-11.348h3.076c1.99 0 3.23-.077 3.732-.241.502-.165.887-.44 1.163-.837.285-.388.422-.887.422-1.473 0-.663-.181-1.197-.552-1.612-.372-.406-.896-.663-1.569-.766-.335-.043-1.345-.068-3.032-.068h-3.24v4.997zM59.79 47.926V30.571H53v-2.31h16.313v2.31h-6.79v17.355H59.79zm7.946 0l7.902-19.664h2.989l8.383 19.664h-3.094l-2.387-5.962h-8.668l-2.241 5.962h-2.885zm5.927-8.073h7.016l-2.146-5.454a72.651 72.651 0 01-1.482-4.101 25.672 25.672 0 01-1.128 3.782l-2.26 5.773zm14.683-1.5c0-3.258.915-5.807 2.75-7.652 1.835-1.853 4.204-2.765 7.109-2.765 1.904 0 3.618.43 5.144 1.302a8.625 8.625 0 013.49 3.618c.801 1.55 1.206 3.308 1.206 5.273 0 1.99-.421 3.774-1.267 5.342-.844 1.578-2.034 2.766-3.578 3.578-1.55.809-3.223 1.206-5.006 1.206-1.948 0-3.671-.45-5.206-1.336-1.525-.896-2.678-2.112-3.472-3.662a10.68 10.68 0 01-1.17-4.904zm2.819.052c0 2.362.663 4.232 1.999 5.584 1.327 1.361 2.998 2.043 5.016 2.043 2.052 0 3.732-.682 5.066-2.06 1.318-1.37 1.981-3.325 1.981-5.85 0-1.593-.285-2.989-.852-4.179-.561-1.19-1.389-2.12-2.483-2.774-1.095-.655-2.31-.983-3.671-.983-1.931 0-3.584.63-4.973 1.895-1.393 1.265-2.084 3.367-2.084 6.324z" fill="#fff"/><path fill="#89C249" d="M114.227 27.816h57.683v20.52h-57.683z"/><path d="M123.09 43.077c-1.492 0-2.736-.475-3.73-1.426-.995-.96-1.493-2.192-1.493-3.697 0-1.504.498-2.732 1.493-3.682.994-.96 2.238-1.44 3.73-1.44 1.732 0 3.065.742 4 2.227l-1.492.757a2.88 2.88 0 00-1.06-1.04c-.448-.266-.93-.4-1.448-.4-.984 0-1.805.337-2.462 1.01-.647.673-.97 1.529-.97 2.568 0 1.04.323 1.896.97 2.569.657.673 1.478 1.01 2.462 1.01.528 0 1.015-.134 1.463-.401a2.913 2.913 0 001.045-1.04l1.492.758c-.955 1.484-2.288 2.227-4 2.227zm14.279-.178h-1.985l-.731-1.9h-4.567l-.731 1.9h-1.985l3.91-9.904h2.179l3.91 9.904zm-3.209-3.43l-1.791-4.722-1.79 4.722h3.581zm11.997 3.43h-2.015l-2.209-3.697h-1.731v3.697h-1.746v-9.904h4.373c.975 0 1.761.287 2.358.861.597.574.895 1.322.895 2.242 0 .832-.229 1.5-.686 2.005a2.857 2.857 0 01-1.672.905l2.433 3.89zm-3.567-5.227c.497 0 .905-.143 1.224-.43.318-.287.477-.668.477-1.144 0-.475-.159-.856-.477-1.143-.319-.287-.727-.43-1.224-.43h-2.388v3.147h2.388zm10.013 5.42c-1.473 0-2.711-.475-3.716-1.426-1.005-.95-1.508-2.187-1.508-3.712 0-1.524.503-2.757 1.508-3.697 1.005-.95 2.243-1.425 3.716-1.425 1.711 0 3.049.688 4.014 2.064l-1.433.801a3.219 3.219 0 00-1.104-.95 3.002 3.002 0 00-1.477-.371c-.985 0-1.806.337-2.463 1.01-.646.673-.97 1.529-.97 2.568 0 1.04.324 1.9.97 2.584.657.673 1.478 1.01 2.463 1.01.467 0 .91-.09 1.328-.268.428-.178.771-.386 1.03-.623v-1.545h-2.97v-1.529h4.716v3.712c-1.085 1.198-2.453 1.797-4.104 1.797zm14.219-1.455c-.955.96-2.174 1.44-3.656 1.44-1.483 0-2.702-.48-3.657-1.44-.955-.97-1.432-2.198-1.432-3.683 0-1.485.477-2.707 1.432-3.667.955-.97 2.174-1.455 3.657-1.455 1.482 0 2.701.485 3.656 1.455.955.96 1.433 2.182 1.433 3.667 0 1.485-.478 2.712-1.433 3.683zm-3.656-.104c.985 0 1.781-.337 2.387-1.01.607-.683.911-1.54.911-2.569 0-1.039-.304-1.895-.911-2.568-.606-.674-1.402-1.01-2.387-1.01-.995 0-1.796.337-2.403 1.01-.597.673-.896 1.529-.896 2.568 0 1.04.299 1.896.896 2.569.607.673 1.408 1.01 2.403 1.01z" fill="#fff"/></svg>