<svg width="173" height="49" viewBox="0 0 173 49" fill="none" xmlns="http://www.w3.org/2000/svg">
<path fill-rule="evenodd" clip-rule="evenodd" d="M3.89419 14.528V34.4162L13.4245 40.0249V44.5142L0.00911989 36.6483H0V12.0633L17.2594 2.27541L17.2001 2.24121L21.051 0L25.7819 2.82717V2.97308V10.6087L30.506 13.3834H30.5585V13.4176L35.3145 16.2106V20.709L30.5585 17.916V35.2529L26.6711 37.7176V15.6315L21.8969 12.8317H21.8877V5.02278L21.0875 4.53943L3.89419 14.528ZM41.3792 11.9265H41.3884V36.6414L21.2334 48.3445V48.3537L15.554 45.0454V22.7063L12.7268 29.2384L10.0045 22.9388V35.0113L6.11033 32.8225V15.7432C7.60143 14.9156 9.24757 14.1586 10.4195 13.5727L12.9708 20.9233L15.5563 10.6087L19.4482 8.17826V42.8179L21.2311 43.853L37.4919 34.4162V14.1495L27.9616 8.54078V4.04923L41.3792 11.9265Z" fill="white"/>
<path d="M53.1459 21.0227V1.35112H59.3839L63.0798 14.7688L66.7254 1.35112H72.9908V21.025H69.1308L69.1217 5.53943L65.0633 21.025H61.0574L57.015 5.53715L56.9968 21.0227H53.1459ZM95.7153 21.0227H91.2169L89.4408 16.5426H81.1759L79.4705 21.0227H75.0587L83.0546 1.34884H87.4572L95.7153 21.0227ZM88.0888 13.2161L85.2274 5.94298L82.4436 13.2161H88.0888ZM96.8348 14.6456L100.893 14.258C101.135 15.5599 101.625 16.5061 102.366 17.1103C103.116 17.7213 104.115 18.0246 105.373 18.0246C106.709 18.0246 107.717 17.7578 108.39 17.2152C109.062 16.6725 109.407 16.0433 109.407 15.3205C109.407 14.8554 109.261 14.4587 108.976 14.1304C108.7 13.802 108.2 13.5193 107.485 13.2868C107.001 13.1226 105.9 12.8376 104.176 12.4249C101.953 11.8914 100.403 11.2439 99.5046 10.4687C98.2369 9.38346 97.61 8.06564 97.61 6.49701C97.61 5.49839 97.9109 4.55904 98.4969 3.67897C99.0919 2.80802 99.9446 2.14455 101.064 1.68855C102.184 1.22344 103.52 1 105.107 1C107.683 1 109.621 1.54263 110.923 2.63702C112.225 3.73141 112.904 5.18831 112.975 7.01457L108.805 7.15137C108.625 6.1345 108.244 5.40263 107.667 4.96259C107.09 4.51344 106.21 4.29 105.056 4.29C103.859 4.29 102.92 4.53168 102.238 5.00591C101.807 5.31599 101.584 5.72182 101.584 6.2371C101.584 6.70221 101.791 7.09893 102.204 7.42724C102.722 7.85816 103.996 8.29819 106.014 8.75419C108.029 9.20334 109.521 9.68442 110.487 10.1678C111.461 10.658 112.211 11.3214 112.763 12.1673C113.305 13.0109 113.581 14.062 113.581 15.3046C113.581 16.424 113.253 17.4842 112.599 18.4669C111.944 19.4495 111.014 20.1814 109.815 20.6648C108.618 21.139 107.127 21.3807 105.335 21.3807C102.733 21.3807 100.734 20.813 99.3359 19.657C97.9383 18.5079 97.1106 16.8435 96.8348 14.6456ZM121.748 21.0227V4.67532H115.647V1.35112H131.985V4.6776H125.918V21.025H121.748V21.0227ZM134.682 21.0227V1.35112H149.926V4.6776H138.852V9.04603H149.151V12.3725H138.852V17.6985H150.33V21.025H134.682V21.0227ZM153.873 21.0227V1.35112H162.628C164.826 1.35112 166.429 1.53123 167.427 1.88463C168.426 2.23803 169.228 2.8673 169.824 3.76333C170.428 4.66848 170.729 5.7013 170.729 6.86637C170.729 8.34835 170.273 9.56358 169.368 10.5212C168.462 11.4856 167.11 12.0898 165.309 12.3383C166.205 12.8376 166.946 13.3894 167.523 13.9936C168.109 14.5886 168.893 15.6557 169.885 17.181L172.393 21.025H167.42L164.438 16.7227C163.369 15.1974 162.637 14.2398 162.24 13.8454C161.844 13.4509 161.431 13.1728 160.991 13.0269C160.542 12.8809 159.844 12.8125 158.889 12.8125H158.045V21.025H153.873V21.0227ZM158.043 9.6753H161.119C163.109 9.6753 164.349 9.59778 164.851 9.43362C165.353 9.26946 165.738 8.99359 166.014 8.59687C166.299 8.20927 166.436 7.70996 166.436 7.12401C166.436 6.46054 166.255 5.92702 165.884 5.51207C165.512 5.10623 164.988 4.84859 164.315 4.746C163.98 4.70268 162.97 4.6776 161.283 4.6776H158.043V9.6753ZM59.7898 47.9264V30.5712H53V28.2616H69.3132V30.5712H62.5234V47.9264H59.7898ZM67.7355 47.9264L75.6378 28.2616H78.6269L87.0104 47.9264H83.9164L81.5293 41.9643H72.8608L70.6196 47.9264H67.7355ZM73.6634 39.853H80.6789L78.5334 34.3993C77.8882 32.7441 77.3957 31.3738 77.0514 30.2977C76.7756 31.5813 76.3971 32.8398 75.9228 34.0801L73.6634 39.853ZM88.3464 38.3528C88.3464 35.0947 89.2607 32.5457 91.0961 30.7012C92.9315 28.8476 95.3003 27.9356 98.205 27.9356C100.109 27.9356 101.823 28.3665 103.349 29.2375C104.874 30.0993 106.037 31.3054 106.839 32.8558C107.64 34.4062 108.045 36.164 108.045 38.1294C108.045 40.1198 107.624 41.9027 106.778 43.4713C105.934 45.0491 104.744 46.2369 103.2 47.0486C101.65 47.858 99.9766 48.2547 98.1936 48.2547C96.2465 48.2547 94.5229 47.8056 92.9884 46.9187C91.4631 46.0226 90.3095 44.8074 89.5161 43.257C88.734 41.7135 88.3464 40.0856 88.3464 38.3528ZM91.1645 38.4052C91.1645 40.7673 91.8279 42.6369 93.164 43.9889C94.491 45.35 96.1622 46.0317 98.18 46.0317C100.232 46.0317 101.912 45.35 103.246 43.9729C104.564 42.6027 105.227 40.6465 105.227 38.1225C105.227 36.5288 104.942 35.1335 104.375 33.9433C103.814 32.7532 102.986 31.823 101.892 31.1686C100.797 30.5143 99.5821 30.1859 98.221 30.1859C96.2899 30.1859 94.6369 30.8152 93.2484 32.0806C91.8553 33.346 91.1645 35.4481 91.1645 38.4052Z" fill="white"/>
<rect x="114.227" y="27.8157" width="57.6833" height="20.5198" fill="#89C249"/>
<path d="M123.09 43.0768C121.598 43.0768 120.354 42.6017 119.36 41.6514C118.365 40.6913 117.867 39.4589 117.867 37.9543C117.867 36.4497 118.365 35.2223 119.36 34.272C120.354 33.3119 121.598 32.8318 123.09 32.8318C124.822 32.8318 126.155 33.5742 127.09 35.059L125.598 35.8162C125.349 35.3906 124.996 35.0441 124.538 34.7769C124.09 34.5096 123.608 34.376 123.09 34.376C122.106 34.376 121.285 34.7125 120.628 35.3856C119.981 36.0587 119.658 36.915 119.658 37.9543C119.658 38.9937 119.981 39.8499 120.628 40.523C121.285 41.1961 122.106 41.5326 123.09 41.5326C123.618 41.5326 124.105 41.399 124.553 41.1317C125.001 40.8645 125.349 40.518 125.598 40.0924L127.09 40.8496C126.135 42.3344 124.802 43.0768 123.09 43.0768Z" fill="white"/>
<path d="M137.369 42.8986H135.384L134.653 40.9981H130.086L129.355 42.8986H127.37L131.28 32.9951H133.459L137.369 42.8986ZM134.16 39.4688L132.369 34.7472L130.579 39.4688H134.16Z" fill="white"/>
<path d="M146.157 42.8986H144.142L141.933 39.2015H140.202V42.8986H138.456V32.9951H142.829C143.804 32.9951 144.59 33.2822 145.187 33.8563C145.784 34.4304 146.082 35.1778 146.082 36.0983C146.082 36.9298 145.853 37.598 145.396 38.1028C144.938 38.5977 144.381 38.8996 143.724 39.0085L146.157 42.8986ZM142.59 37.6722C143.087 37.6722 143.495 37.5287 143.814 37.2416C144.132 36.9545 144.291 36.5735 144.291 36.0983C144.291 35.6232 144.132 35.2421 143.814 34.955C143.495 34.668 143.087 34.5244 142.59 34.5244H140.202V37.6722H142.59Z" fill="white"/>
<path d="M152.603 43.0917C151.13 43.0917 149.892 42.6165 148.887 41.6663C147.882 40.716 147.379 39.4787 147.379 37.9543C147.379 36.4299 147.882 35.1975 148.887 34.2572C149.892 33.3069 151.13 32.8318 152.603 32.8318C154.314 32.8318 155.652 33.5197 156.617 34.8956L155.184 35.6974C154.906 35.3114 154.538 34.9946 154.08 34.7472C153.632 34.4997 153.14 34.376 152.603 34.376C151.618 34.376 150.797 34.7125 150.14 35.3856C149.494 36.0587 149.17 36.915 149.17 37.9543C149.17 38.9937 149.494 39.8548 150.14 40.5378C150.797 41.2109 151.618 41.5475 152.603 41.5475C153.07 41.5475 153.513 41.4584 153.931 41.2802C154.359 41.1021 154.702 40.8942 154.961 40.6566V39.1124H151.991V37.5831H156.707V41.2951C155.622 42.4928 154.254 43.0917 152.603 43.0917Z" fill="white"/>
<path d="M166.822 41.6366C165.867 42.5967 164.648 43.0768 163.166 43.0768C161.683 43.0768 160.464 42.5967 159.509 41.6366C158.554 40.6665 158.077 39.4391 158.077 37.9543C158.077 36.4695 158.554 35.247 159.509 34.2869C160.464 33.3168 161.683 32.8318 163.166 32.8318C164.648 32.8318 165.867 33.3168 166.822 34.2869C167.777 35.247 168.255 36.4695 168.255 37.9543C168.255 39.4391 167.777 40.6665 166.822 41.6366ZM163.166 41.5326C164.151 41.5326 164.947 41.1961 165.553 40.523C166.16 39.84 166.464 38.9838 166.464 37.9543C166.464 36.915 166.16 36.0587 165.553 35.3856C164.947 34.7125 164.151 34.376 163.166 34.376C162.171 34.376 161.37 34.7125 160.763 35.3856C160.166 36.0587 159.867 36.915 159.867 37.9543C159.867 38.9937 160.166 39.8499 160.763 40.523C161.37 41.1961 162.171 41.5326 163.166 41.5326Z" fill="white"/>
</svg>
